#!OML:ASF H:\Dans Jumps\Project 1\Capture day 1\Session 1\subject.ASF
:FULLY-SPECIFIED
:DEGREES
1174
root -2.11204 18.2264 2.38615 -0.186161 17.3918 9.72543
lowerback 14.808 0.45788 -6.40722
upperback 8.45082 -0.120815 -6.8401
thorax 0.698112 -0.0559873 -3.58227
lowerneck -17.181 -3.09698 -4.52896
upperneck 3.38603 -4.11308 11.476
head 4.14812 -1.41965 3.96383
rclavicle -3.81667e-014 -6.67916e-014
rhumerus -18.3188 6.0417 -90.0744
rradius 44.8939
rwrist 9.35075
rhand -25.382 -25.0869
rfingers 7.12502
rthumb 1.14266 -55.0636
lclavicle -3.81667e-014 -6.67916e-014
lhumerus -18.6421 -2.77632 61.162
lradius 48.0239
lwrist 29.1962
lhand -17.7561 -2.66135
lfingers 7.12502
lthumb 8.50568 27.1474
rfemur 6.78184 -15.898 16.0484
rtibia -8.74653e-015
rfoot -4.71323 -19.7189
rtoes 31.3512
lfemur -101.802 26.8306 -14.4345
ltibia 113.668
lfoot 43.6157 -3.79191
ltoes 29.9935
1175
root -2.10622 18.2255 2.38641 -0.287568 17.4122 9.75932
lowerback 14.8655 0.440855 -6.50173
upperback 8.48024 -0.157645 -6.85218
thorax 0.700217 -0.0771348 -3.53798
lowerneck -17.2103 -3.0463 -4.49034
upperneck 3.49807 -4.05887 11.4285
head 4.18035 -1.39133 3.94767
rclavicle -1.27222e-014 3.10104e-014
rhumerus -18.2937 6.06447 -90.1094
rradius 44.8243
rwrist 9.28968
rhand -25.2574 -25.1613
rfingers 7.12502
rthumb 1.26293 -55.1373
lclavicle -1.27222e-014 3.10104e-014
lhumerus -18.7406 -2.66267 61.1682
lradius 47.752
lwrist 29.4575
lhand -17.1192 -2.56545
lfingers 7.12502
lthumb 9.12032 27.2173
rfemur 6.91757 -15.765 15.9802
rtibia 6.36111e-015
rfoot -4.69286 -19.8706
rtoes 31.4274
lfemur -102.554 27.4158 -14.845
ltibia 115.316
lfoot 43.9819 -4.73194
ltoes 29.966
1176
root -2.09606 18.2221 2.38987 -0.433525 17.3985 9.79732
lowerback 14.9191 0.427519 -6.56144
upperback 8.51347 -0.184909 -6.88945
thorax 0.708349 -0.0917726 -3.54148
lowerneck -17.2868 -2.94692 -4.32347
upperneck 3.65549 -3.96034 11.2781
head 4.2248 -1.34242 3.88199
rclavicle -3.97569e-014 -6.36111e-015
rhumerus -18.3828 5.96833 -90.2384
rradius 44.7825
rwrist 9.26186
rhand -25.4222 -25.1819
rfingers 7.12502
rthumb 1.10382 -55.1588
lclavicle -3.97569e-014 -6.36111e-015
lhumerus -18.9129 -2.58251 61.1377
lradius 47.5434
lwrist 29.855
lhand -17.1454 -1.98954
lfingers 7.12502
lthumb 9.09505 27.7944
rfemur 7.10625 -15.5942 15.8819
rtibia 8.74653e-015
rfoot -4.65989 -20.0357
rtoes 31.4317
lfemur -103.241 28.0168 -15.2821
ltibia 116.853
lfoot 44.3714 -5.90383
ltoes 29.4858
1177
root -2.08905 18.2212 2.38996 -0.527681 17.358 9.88233
lowerback 14.9817 0.443608 -6.67269
upperback 8.5189 -0.183952 -6.93957
thorax 0.683329 -0.0930647 -3.53383
lowerneck -17.1566 -2.92299 -4.2963
upperneck 3.74024 -3.94556 11.2861
head 4.22885 -1.33617 3.88184
rclavicle 2.22639e-014 -6.2816e-014
rhumerus -18.4772 5.78048 -90.3677
rradius 44.7026
rwrist 9.23976
rhand -25.4546 -25.1948
rfingers 7.12502
rthumb 1.07255 -55.1718
lclavicle 2.22639e-014 -6.2816e-014
lhumerus -19.1054 -2.60126 61.126
lradius 47.4278
lwrist 30.5104
lhand -16.7274 -1.84023
lfingers 7.12502
lthumb 9.49839 27.9257
rfemur 7.23101 -15.3985 15.7618
rtibia -1.51076e-014
rfoot -4.59594 -20.193
rtoes 31.4246
lfemur -103.875 28.6421 -15.7641
ltibia 118.201
lfoot 44.5038 -6.77951
ltoes 29.2447
1178
root -2.08117 18.2198 2.39054 -0.637395 17.3493 9.91923
lowerback 15.0398 0.438692 -6.73798
upperback 8.54563 -0.202091 -6.9611
thorax 0.68238 -0.103596 -3.51866
lowerneck -17.1533 -2.89956 -4.29095
upperneck 3.89791 -3.92875 11.2708
head 4.27479 -1.32481 3.87812
rclavicle 4.77083e-014 3.97569e-014
rhumerus -18.6193 5.58073 -90.5092
rradius 44.6719
rwrist 9.23737
rhand -25.427 -25.2174
rfingers 7.12502
rthumb 1.09918 -55.1944
lclavicle 4.77083e-014 3.97569e-014
lhumerus -19.2717 -2.45533 61.1066
lradius 47.2197
lwrist 30.7633
lhand -16.3446 -1.92786
lfingers 7.12502
lthumb 9.86774 27.8209
rfemur 7.36794 -15.2347 15.6862
rtibia 1.43125e-014
rfoot -4.57806 -20.354
rtoes 31.5551
lfemur -104.413 29.1993 -16.1358
ltibia 119.354
lfoot 44.444 -7.91849
ltoes 28.9978
1179
root -2.07494 18.2198 2.38827 -0.666278 17.4168 9.93352
lowerback 15.0573 0.394616 -6.75721
upperback 8.52205 -0.266936 -6.9841
thorax 0.647161 -0.135456 -3.5231
lowerneck -17.085 -2.82422 -4.18807
upperneck 3.99696 -3.85176 11.1816
head 4.28363 -1.29004 3.84045
rclavicle -3.18055e-015 -6.75868e-014
rhumerus -18.711 5.5296 -90.6107
rradius 44.5691
rwrist 9.07949
rhand -25.5134 -25.2762
rfingers 7.12502
rthumb 1.0157 -55.2535
lclavicle -3.18055e-015 -6.75868e-014
lhumerus -19.5057 -2.38251 61.093
lradius 47.0847
lwrist 31.0527
lhand -16.1986 -1.52187
lfingers 7.12502
lthumb 10.0085 28.2202
rfemur 7.40794 -15.1534 15.6557
rtibia -1.66979e-014
rfoot -4.52935 -20.5117
rtoes 31.5919
lfemur -104.97 29.5609 -16.4833
ltibia 120.277
lfoot 44.1551 -9.23546
ltoes 28.1943
1180
root -2.06708 18.2185 2.38675 -0.718752 17.4488 10.0291
lowerback 15.105 0.375633 -6.86337
upperback 8.54483 -0.307698 -7.01451
thorax 0.648019 -0.15833 -3.4912
lowerneck -17.1112 -2.77149 -4.14369
upperneck 4.10064 -3.79487 11.1335
head 4.31288 -1.26067 3.82345
rclavicle 2.54444e-014 -1.59028e-015
rhumerus -18.7932 5.44361 -90.7276
rradius 44.47
rwrist 8.91852
rhand -25.4396 -25.4943
rfingers 7.12502
rthumb 1.08697 -55.4713
lclavicle 2.54444e-014 -1.59028e-015
lhumerus -19.5987 -2.23351 61.1172
lradius 46.842
lwrist 31.12
lhand -16.0817 -1.48332
lfingers 7.12502
lthumb 10.1213 28.2532
rfemur 7.50115 -15.0317 15.524
rtibia 7.95139e-016
rfoot -4.48857 -20.6827
rtoes 31.6394
lfemur -105.289 29.8489 -16.784
ltibia 120.968
lfoot 43.2913 -11.203
ltoes 26.0241
1181
root -2.05922 18.2138 2.38596 -0.782157 17.4567 9.98669
lowerback 15.1571 0.358597 -6.82512
upperback 8.52879 -0.333345 -7.02644
thorax 0.602091 -0.168793 -3.52183
lowerneck -17.0193 -2.73138 -4.1568
upperneck 4.18461 -3.75116 11.1712
head 4.32205 -1.23781 3.84196
rclavicle 4.21423e-014 -3.26007e-014
rhumerus -19.0317 5.26303 -90.9015
rradius 44.4428
rwrist 8.77005
rhand -25.5751 -25.3774
rfingers 7.12502
rthumb 0.956168 -55.355
lclavicle 4.21423e-014 -3.26007e-014
lhumerus -19.7278 -2.16163 61.1233
lradius 46.6183
lwrist 31.0441
lhand -16.1113 -1.66637
lfingers 7.12502
lthumb 10.0928 28.0716
rfemur 7.55559 -14.8905 15.5507
rtibia 1.11319e-014
rfoot -4.4369 -20.849
rtoes 31.6552
lfemur -105.522 30.1489 -16.8544
ltibia 121.417
lfoot 42.2336 -13.2756
ltoes 23.9048
1182
root -2.05317 18.2082 2.3836 -0.841799 17.5001 9.95887
lowerback 15.1979 0.341107 -6.81499
upperback 8.54566 -0.357638 -7.03632
thorax 0.598183 -0.180117 -3.53502
lowerneck -16.9003 -2.7333 -4.19313
upperneck 4.24421 -3.76005 11.2357
head 4.32476 -1.24117 3.86786
rclavicle 1.66979e-014 -6.59965e-014
rhumerus -19.0934 5.20582 -91.024
rradius 44.3328
rwrist 8.52145
rhand -25.4609 -25.5983
rfingers 7.12502
rthumb 1.0664 -55.5754
lclavicle 1.66979e-014 -6.59965e-014
lhumerus -19.7524 -2.11165 61.1198
lradius 46.3597
lwrist 30.8683
lhand -16.2098 -1.67409
lfingers 7.12502
lthumb 9.99772 28.0685
rfemur 7.61302 -14.7846 15.5655
rtibia 1.19271e-014
rfoot -4.36667 -21.0194
rtoes 31.6333
lfemur -105.545 30.3017 -16.774
ltibia 121.609
lfoot 40.2994 -16.0545
ltoes 20.5764
